<?xml version="1.0" encoding="UTF-8" standalone="no"?>
<!DOCTYPE svg PUBLIC "-//W3C//DTD SVG 1.1//EN" "http://www.w3.org/Graphics/SVG/1.1/DTD/svg11.dtd">
<svg width="100%" height="100%" viewBox="0 0 2903 2903" version="1.1" xmlns="http://www.w3.org/2000/svg" xmlns:xlink="http://www.w3.org/1999/xlink" xml:space="preserve" xmlns:serif="http://www.serif.com/" style="fill-rule:evenodd;clip-rule:evenodd;stroke-linejoin:round;stroke-miterlimit:2;">
    <g transform="matrix(1,0,0,1,-322.820724,-55.821289)">
        <g transform="matrix(6.392198,0,0,7.599167,310.316468,39.576481)">
            <path d="M455.966,9.5C455.967,382.907 456.009,383.005 455.517,383.517C454.802,384.261 3.263,384.267 2.483,383.517C1.427,382.503 2.388,38.474 1.965,5.501C1.932,2.909 1.855,2.156 4.491,2.138C4.639,2.137 453.381,2.137 453.509,2.138C453.667,2.14 454.998,2.15 455.447,2.558C456.351,3.379 455.879,3.581 455.966,9.5Z" style="fill:rgb(209,250,229);"/>
        </g>
        <g transform="matrix(1,0,0,1,-34,111)">
            <g transform="matrix(5.633021,0,0,5.633021,493.092606,400.421349)">
                <path d="M313.496,68.951C337.507,70.484 336.89,80.203 360.44,75.263C392.073,68.629 435.306,64.702 436.398,65.63C439.439,68.216 434.74,67.103 399.451,74.282C313.877,91.689 332.891,124.503 301.114,168.215C272.87,207.067 222.672,190.658 168.181,230.022C162.158,234.373 155.999,241.03 159.952,234.702C162.515,230.599 164.372,231.933 170.966,218.724C180.325,199.977 205.267,164.009 219.737,156.917C241.036,146.478 205.623,161.874 179.651,152.049C178.804,151.728 164.071,146.155 170.476,145.416C172.144,145.224 172.171,146.989 191.453,145.016C217.263,142.376 221.893,144.973 219.288,141.64C213.62,134.386 169.41,149.96 131.784,116.186C131.332,115.78 124.309,109.476 127.333,110.042C129.453,110.439 129.034,112.005 153.458,116.706C183.281,122.445 183.778,119.966 214.495,129.548C214.68,129.606 218.766,129.738 214.854,127.15C189.967,110.687 136.002,122.431 101.688,67.397C95.324,57.19 105.675,70.529 139.434,82.68C156.744,88.91 178.948,94.829 209.612,110.273C210.131,110.534 215.856,113.417 216.524,112.517C221.15,106.284 139.87,78.873 118.874,60.078C96.561,40.105 90.298,15.954 92.36,15.313C96.631,13.986 112.532,38.891 186.466,70.573C243.67,95.085 270.423,104.913 267.034,140.473C265.459,156.998 270.783,138.473 271.078,136.451C273.887,117.252 263.966,112.516 269.926,105.896C294.46,78.641 291.377,70.611 313.496,68.951Z" style="fill:url(#_Linear1);"/>
            </g>
            <g transform="matrix(5.633021,0,0,5.633021,493.092606,400.421349)">
                <path d="M55.468,310.051C42.997,311.884 21.711,312.031 26.641,307.633C42.271,293.693 103.895,263.825 169.475,208.46C169.623,208.335 174.563,205.648 171.091,210.252C156.119,230.107 158.602,231.999 129.492,264.493C90.712,307.782 55.515,310.042 55.468,310.051Z" style="fill:rgb(0,105,92);"/>
            </g>
            <g transform="matrix(5.633021,0,0,5.633021,493.092606,400.421349)">
                <path d="M141.702,261.689C142.866,260.456 149.694,253.221 156.699,246.709C164.598,239.366 195.399,216.22 185.999,226.668C154.1,262.125 153.446,285.968 133.929,309.855C118.514,328.722 85.253,341.739 83.961,337.397C83.245,334.992 116.935,288.215 141.702,261.689Z" style="fill:rgb(0,105,92);"/>
            </g>
            <g transform="matrix(5.633021,0,0,5.633021,493.092606,400.421349)">
                <path d="M54.576,258.014C52.765,257.521 35.668,252.869 32.799,249.292C29.287,244.914 73.305,238.27 125.637,217.834C168.03,201.278 179.762,186.102 181.412,186.869C183.142,187.673 184.035,190.007 165.887,204.965C94.015,264.204 71.291,260.008 54.576,258.014Z" style="fill:rgb(0,105,92);"/>
            </g>
            <g transform="matrix(5.633021,0,0,5.633021,493.092606,400.421349)">
                <path d="M190.035,265.468C183.509,298.499 178.25,307.156 154.316,321.164C149.474,323.999 151.65,314.193 151.788,313.568C171.361,225.376 218.154,206.805 210.279,216.347C193.165,237.085 193.892,242.816 190.035,265.468Z" style="fill:rgb(0,105,92);"/>
            </g>
            <g transform="matrix(0.898109,0,0,0.898109,-41.465481,220.660793)">
                <circle cx="2588.19" cy="742.046" r="47.726" style="fill:rgb(209,250,229);"/>
            </g>
        </g>
    </g>
    <defs>
        <linearGradient id="_Linear1" x1="0" y1="0" x2="1" y2="0" gradientUnits="userSpaceOnUse" gradientTransform="matrix(70.972429,-50.755641,50.755641,70.972429,199.860515,193.107493)"><stop offset="0" style="stop-color:rgb(0,105,92);stop-opacity:1"/><stop offset="1" style="stop-color:rgb(16,185,129);stop-opacity:1"/></linearGradient>
    </defs>
</svg>
